<?xml version="1.0" encoding="UTF-8"?><svg id="Layer_2" xmlns="http://www.w3.org/2000/svg" viewBox="0 0 85.79 45.39"><defs><style>.cls-1{fill:#fff;}</style></defs><g id="Layer_1-2"><path class="cls-1" d="M63.43,38.13c.08-.22,1.06-.65,1.11-.95l.12.03c0,.17-.02.34,0,.51.02.26.11.58.12.84.04.72-.16,2.17.19,2.75.05.08.15.13.2.21.1.15.12.36.39.44.16.05.69-.25.78-.39.2-.3.02-.8.16-1.15v-3.58c.1-.02.12.03.18.08.22.21.45.6.68.84.66.69,1.36,1.23,2.39,1.37.4.05,1,0,1.1-.44.16-.66-.92-.69-1.39-.88-.4-.16-.85-.57-1.15-.87-.23-.23-1.82-2.08-1.82-2.22v-1.07s-.12-.15.03-.14c.07,0,.18.21.24.26,1.15,1.03,3.24,2.1,4.82,2.32.16.02.7.02.85-.01.25-.06.37-.42.65-.44v-.3c-.66-.26-1.37-.4-2.04-.67-1.78-.72-3.44-2.01-4.15-3.7-.14-.33-.37-.93-.34-1.27,0-.08-.05-.16.09-.14l1.04,1.05c.98.72,2.7,2.16,4.02,2.16.36,0,.8-.27.62-.62-.12-.23-1.36-1.01-1.66-1.24-1.28-.98-2.51-2.07-3.39-3.38-.18-.26-.61-.95-.7-1.22-.02-.06-.06-.31.08-.24.08.04.47.54.59.64.45.39,1.35.98,1.92,1.17.47.16,1.45.34,1.77-.1.41-.55-.47-.59-.85-.75-1.21-.5-2.25-1.56-2.88-2.61-.36-.6-1.04-1.96-.97-2.61.01-.09,0-.14.1-.19.66.84,1.59,1.65,2.6,2.13.45.21.86.35,1.37.29,0,0,0,0,0,0,.13-.61-.45-.95-.83-1.35-1.14-1.17-2.38-2.39-2.91-3.93-.13-.39-.15-1.04-.31-1.35-.05-.1-.18-.11-.2-.17-.04-.13-.09-.46-.12-.61-.03-.17.04-.38-.04-.53-.06-.12-.47-.29-.61-.28-.09,0-.52.27-.56.34-.06.11-.01.24-.04.35-.17.6-.13,1.05-.28,1.6-.24.86-.57,1.92-1.04,2.71-.28.48-.7.9-1.13,1.27-.17.14-.44.27-.59.42-.23.22-.44.66-.05.83.76.35,1.41-.42,1.97-.79l.7-.8c.03-.06.12.05.12.06v2.08s-.11.09-.14.16c-.22.52-.32.91-.73,1.36-.14.16-.8.79-1.04.76-.02,0-.09.13-.1.12l.52.94.18-.06s.05-.03.06-.06c.04-.08.19-.21.23-.24.21-.13.44-.24.64-.4.12-.1.14-.29.37-.25v1.44s-.89,1.2-.89,1.2l.96,1.36c.1.13.37.29.37.46,0,.14-.16.26-.23.38,0,0,0,0,0,0l-.05.27c-.12.21-.16.06-.4.09l-.89.14.14,2.93c.07-.12.65-.61.72-.67.07-.06.12-.14.24-.11.12.07.25.19.28.32.04.16.04.78,0,.93-.04.16-.5.61-.79.88-.07.06-.46.08-.46-.01l.04,2.26Z"/><path class="cls-1" d="M20.47,34.54c-.19,0-.56-.06-.64-.08-1.14-.28-1.76-2-2.03-2.93-.02-.07-.11-.12-.11-.13v-1.55c.1-.02.13.03.18.08.17.16.3.35.49.51.13.11.3.19.44.3.04.03.05.1.02.14l.68-.86c-.13.13-.08-.03-.18-.12-.54-.47-.91-.69-1.22-1.36-.06-.14-.42-1.08-.42-1.14v-2.22c.11-.02.12.03.18.09.22.28.37.61.63.89.21.23.71.72,1.02.76.91.11,1.15-.52,1.57-1.08.08-.11.17-.22.26-.34.17-.24.35-.25.52-.15.06.04.13,2.9.19,2.97.45.45.89-1.43,1.33-2.07.13-.29-.02-4.21-.1-4.51-.01-.05-.09-.12-.09-.14v-.87c.14-.02.1,0,.14.07.05.08.08.18.14.26.64.81,1.44.26,1.37-.57-.51-.79-.98-1.62-1.26-2.51-.2-.62-.19-1.2-.34-1.77-.03-.12-.17-.24-.22-.42-.09-.32-.01-1.07-.2-1.23-.07-.06-.15-.06-.23-.1-.05-.02-.03-.15-.29-.09-.03,0-.3.36-.39.43,0,0,0,0,0,.01-.16.79-.08,1.61-.27,2.39-.33,1.34-.74,2.95-1.74,4.04-.32.35-.88.63-.7,1.2.04.12.4.3.52.31.29.03,1.06-.76,1.24-.98.19-.24.33-.54.51-.77.05-.07.07-.11.18-.09v2.11c0,.12-.75,1.36-.88,1.56-.21.34-.57.93-.82,1.22-.03.04-.09.14-.15.09-.88-.74-1.4-1.78-1.71-2.83-.16-.56-.41-1.41-.5-1.96-.1-.55.02-1.11-.14-1.73-.01-.05-.28-.41-.31-.42-.04-.03-.25-.02-.32-.01-.04,0-.04.08-.06.09-.06.03-.14.03-.19.08-.14.12-.09.98-.2,1.29-.18.52-.25.87-.38,1.4-.52,2.17-1.45,2.97-2.65,4.72-.22.32-.39.63-.31,1.02,0,0,0,0,0,0,.36.11.8-.12,1.1-.31.86-.54,1.39-1.28,1.95-2.05.05-.06-.02-.15.15-.11v.82s-.08.08-.09.14c-.43,1.6-1.24,3.68-2.84,4.61-.43.25-1.19.32-.7.94.42.53,1.53-.05,1.95-.37.24-.19.69-.59.89-.82.18-.21.32-.53.55-.7-.06.5-.31,1.04-.54,1.5-.52,1.03-1.33,2.14-2.14,3-.49.52-1.09.98-1.57,1.49-.17.18-.43.42-.34.65.18.49.64.4,1.06.23,1.22-.47,2.45-1.89,3.21-2.86.12-.15.22-.31.32-.47.12-.01.05.12.04.18-.35,2.41-1.6,4.39-4.04,5.49-.21.09-1,.33-1.09.47-.19.28.36.83.68.84.09,0,.43-.05.53-.07,1.39-.29,2.89-1.47,3.77-2.47.1-.11.13-.35.34-.33-.01.33.01.66,0,.99-.04,1.25.03,2.17.23,3.39.05.31.04.62.15.93.07.2.23.4.29.6.15.1.37-.21.41-.32.23-.52.35-1.8.39-2.4.06-.9-.08-1.83.03-2.73.08-.1.09-.03.15.04.48.57.83,1.23,1.57,1.61.91.46,1.65-.12.75-.8-1.5-1.12-2.05-2.09-2.39-3.84-.01-.06-.23-.5-.02-.49.04,0,.38.45.46.54.65.65,1.31.88,2.25.98.05,0,.56.04.57.09.01.13-.06-1.41-.06-1.41,0,.06-.46.04-.52.04Z"/><polygon class="cls-1" points="85.79 0 85.79 0 85.79 0 85.79 0"/><path class="cls-1" d="M83.58,30.74c-.57-.49-1.41-.61-2.52-.34-.11.02-.21.04-.3.05-.33.06-.61.11-.83.1-.31-.02-.47-.18-.54-.3-.3-.5.09-1.43.55-2.43.08-.17.15-.32.19-.43,2.14-4.48,3.43-9.95,4.05-17.23.01-.38.05-.86.09-1.41.18-2.46.45-6.19-.79-7.5l-.34.17.33-.18c-.45-.4-1.16-.28-2.14.38-.31.21-.62.44-.93.66-.65.47-1.32.96-2.09,1.4-2.45,1.45-5.23,2.66-8.03,3.49-7.36,2.24-15.42,1.67-23.95,1.07-4.77-.34-9.67-.68-14.5-.5-1.05.04-2.1.1-3.15.2-11.22,1.03-20.36,6.97-24.45,15.89-1.93,4.06-3.2,9.1-3.89,15.41-.11,1.06-.28,2.7-.35,4.15.07.29.44.25.48.02.02-.1.04-.19.05-.29,0,0,0,0,0,0,.16-.84.28-1.72.37-2.33.14-.92.23-1.45.27-1.59C4.58,19.84,13.82,10.52,30.26,9.88c6.64-.32,13.23-.01,19.6.28,1.23.06,2.46.11,3.68.17,4.76.25,8.94.13,12.68-.37l.07-.03-.04.02c5.22-.7,9.6-2.14,13.52-4.4.95-.52,1.64-.63,2.12-.34.57.34.82,1.19.79,2.75-.04,1.66-.2,3.55-.5,5.95-.5,4.11-1.68,9.98-4.41,14.61l-.07.14c-.4.79-.95,1.88-.92,2.69.01.59.33.95.94,1.08.53.17,1.29,0,2.02-.15,1.01-.21,2.05-.44,2.68.1.42.36.59,1,.52,1.96-.08,1.25-1.12,3.23-2.29,5.01-.32.49.38,1.01.75.55,0,0,.02-.02.02-.03,1.68-2.17,2.75-4.43,2.94-6.19.07-.63.12-2.17-.79-2.96Z"/><polygon class="cls-1" points="62.51 32.28 62.51 32.28 62.51 32.28 62.51 32.28"/><path class="cls-1" d="M65.5,30.15l-1.34-1.83-.02.03-.6-.87-1.01-1.39-5.95-8.23c-.38-.14-.77-.13-1.18-.12-.18,0-.38,0-.56,0l-.44.06c-.56-.02-1.12,0-1.66.03-.49.02-1,.04-1.5.03-.05.03-.05.29-.05.41,0,.14,0,.26-.02.35-.05.18-.22.47-.44.5-.07.01-.2,0-.31-.18-.11-.18-.1-.44-.09-.7,0-.23.02-.46-.06-.61v-1.51c-.04-.06-.08-.12-.12-.18-.11-.17-.22-.34-.38-.36h-3.92c-.12.03-.31.26-.32.35-.05.26-.03.62,0,.96.02.29.04.58.01.84-.01.14-.06.31-.18.34h-.02s-2.21,0-2.21,0c-1.12.1-2.27.12-3.37.14-.46,0-.92.02-1.37.03-.04,0-.09.01-.13.03-.06.01-.11.03-.17.03h-2.34c-1.39.13-2.83.14-4.22.15-1.01,0-2.04.01-3.05.07-.26.01-.85.08-1.03.15-.07.03-.12.09-.18.15l-.04.04c-.48.54-1.02,1.36-1.5,2.08-.13.2-.26.4-.38.57-.64.95-1.27,1.93-1.87,2.88-.96,1.5-1.95,3.06-3.03,4.53-.09.12-.17.25-.26.38-.18.27-.37.56-.59.78l-.67.85c-.05.08-.16.2-.27.31-.09.09-.23.23-.24.28-.02.14.55.8.78.87.15.04.69.11.89.13.13,0,.15-.01.19-.07.02-.03.06-.07.11-.11.01.66.19,1.5.21,2.08l.07,1.88c.13,1.98.02,4.11-.06,6.08,0,.15-.03.85.06.91.08.05,15.02,2.16,15.49,2.1.43-.06.46-.82-1.55-1.03l-4.28-.62s0,0,0,0c-.06-.33,0-.86.02-1.19.09-1.19-.07-2.48,0-3.69,0,0,0,0,0,0,.59.16,1.2.35,1.82.39.22.02,1.27.04,1.27-.25,0-.3-.67-.18-.9-.2-.37-.03-.73-.13-1.1-.12l-1.08-.22s0,0,0,0c-.07-.06.05-1.45,0-1.71-.02-.09-.1-.14-.12-.23-.04-.23.06-.39-.11-.63-.16-.23-.66-.25-.73-.02-.04.42-.06.85-.09,1.27-.12,1.82-.09,3.69,0,5.52.01.24.21.71.16.97,0,0,0,0,0,0l-8.04-.96s0,0,0,0v-5.66s-.01,0-.01,0c.6.15,1.2.29,1.82.4.28.01.67-.14.36-.39-.4-.32-1.54-.37-2.08-.46l-.07-.05-.03-1.72h0c-.04-.28-.11-.62-.13-.9-.02-.36.12-1.57-.25-1.75-.05-.02-.19-.19-.31-.32l7.44-10.27h.05s0,0,0,0c.1,0,.25.28.33.45l.03.07c.22.47.46.95.75,1.4l3.08,4.28.03.05.08.11-2.83.05c-.16-.02-.22-.1-.42-.12-.43-.03-1.05-.02-1.48,0-.1,0-.17.05-.09.11.47.09.94.23,1.4.32.86.17,1.89.3,2.76.35.18.01.75-.02,1.21-.04.31.47.65.93.99,1.38.3.41.61.83.9,1.25.16.23.31.5.48.79.25.42.5.86.76,1.17.12.14.33.3.47.34.42.1,1.01.03,1.52-.03.21-.02.4-.05.58-.06,1.16-.08,2.35-.12,3.49-.16.94-.03,1.9-.07,2.86-.12,2.63-.15,5.3-.33,7.89-.51,2.74-.19,5.57-.38,8.36-.53l1.13-.14c.02.12.04.28.04.31v1.07c-.74-.06-1.51-.09-2.25-.06-1.62.06-3.29.2-4.87.45-.53.08-1.14.12-1.66.29-.06.02-.12.03-.16.08-.06.07-.14.25.03.26.19,0,.43.02.62,0,.55-.05,1.18-.18,1.73-.23,1.75-.15,3.55-.08,5.3-.22.38-.03.81-.16,1.2-.17,0,0,0,0,0,0l-.12,8.75c-1.08.12-2.16.16-3.24.25-6.7.53-13.54.89-20.22,1.64-.31.04-1.61.18-1.79.28-.17.1-.35.57-.12.66.29,0,17.68-1.31,24.22-1.96.5-.05,1.05-.06,1.54-.11.32-.03.63-.12.96-.11v-4.96s0-.03,0-.04l-.04-3.29c-.03-.11-.05-.21-.02-.34,0,0,0-.02.01-.03l-.03-2.67h.07s0,0,0,0l1.1-.11c.18-.02.34-.12.43-.27l.34-.57s.02-.04.03-.06c.08-.23.05-.47-.09-.66ZM56.44,27.94c.02-.09.11-.18.18-.21.43-.2,2.12-.31,2.6-.26.13.01.26.05.39.09.1.03.19.06.27.07h.03s.02.03.02.03c.07.07.06.14.04.17-.03.06-.09.1-.2.1-.21,0-.4.03-.6.06-.12.02-.25.04-.38.05-.1,0-.2,0-.3,0-.09,0-.18,0-.26,0-.14.01-.29.03-.43.06-.22.03-.44.07-.66.07s-.44-.03-.65-.13l-.07-.03v-.07ZM47.72,20.96c2.19-.18,4.67-.39,6.81-.25h0s.64.07.71.15c.06.07.06.13.04.17-.04.1-.18.1-.3.11-.02,0-.04,0-.06,0-.45.12-.84.15-1.25.18-.12,0-.25.02-.38.03-3.48.32-7.34.52-12.15.62h-.21c-.25.01-.52.02-.78.02-.22,0-.43,0-.63-.02-.02,0-.04,0-.05,0-.09,0-.2,0-.29-.12l-.02-.04c-.02-.11,0-.21.05-.28.04-.05.1-.08.16-.09,2.82-.1,5.19-.23,7.24-.39.36-.03.72-.06,1.1-.09ZM54.11,28.14l-.09.02c-.11.02-.23.07-.35.1-.12.04-.25.08-.37.11-.84.18-1.74.2-2.62.21-.36,0-.73.01-1.08.03-1.07.05-2.16.15-3.22.24-.9.08-1.84.16-2.76.22-.14,0-.27.01-.4.01-.35,0-.63-.04-.71-.21-.04-.07-.02-.12,0-.14.04-.06.1-.06.15-.06,0,0,0-.02.01-.02.17-.27,1.66-.37,4.78-.52.93-.05,1.81-.09,2.51-.14l.23-.02c1.05-.08,2.65-.2,3.6-.11.11,0,.26.02.3.19l.02.09ZM37.97,31.68s-.05.03-.08.03c-.12,0-.3-.13-.55-.4-.5-.53-.9-1.2-1.3-1.85-.19-.32-.38-.62-.57-.91-.09-.13-.17-.25-.26-.38h0c-1.4-2.06-2.81-4-4.3-6.05-.34-.47-.68-.94-1.03-1.42-.01-.02-.03-.03-.04-.05-.05-.06-.13-.14-.11-.26v-.04s.03-.02.03-.02c.12-.1.43,0,1.07.24.08.03.14.06.19.07.04.01.07.04.1.08.84,1.24,1.72,2.48,2.57,3.69.87,1.23,1.75,2.48,2.61,3.75.47.7,1.11,1.65,1.54,2.3.14.21.13.44.13.67,0,.15,0,.3.03.44l.02.06-.04.04ZM34.26,22.32l.07-.08c.1-.12.2-.17.34-.21.45-.15,1.86-.29,2.36-.24.09,0,.17.03.25.06.08.02.16.05.24.05h.03s.02.02.02.02c.08.07.08.16.07.2-.04.16-.29.25-.38.28-.04,0-.68.14-.73.14h-2s-.08-.05-.12-.1c-.02-.02-.04-.05-.06-.06l-.09-.06ZM34.13,21.35c-.06,0-.51.03-.71.03-.04,0-.08,0-.09,0-.14-.03-.21-.13-.26-.21-.01-.02-.02-.04-.04-.05l-.02-.03v-.03s0-.17.55-.23c.88-.09,1.75-.18,2.63-.28,1.92-.21,3.91-.42,5.88-.57.22-.02.44-.04.67-.05,1.02-.09,2.08-.17,3.11-.12.08,0,.15.02.22.03.1.02.19.04.28.03h.13s-.03.11-.03.11c-.03.15-.16.17-.23.18-.02,0-.03,0-.05,0-.82.2-1.78.26-2.72.31-.39.02-.77.05-1.12.08-1.18.11-2.37.23-3.52.34-1.53.15-3.12.31-4.68.45ZM62.12,30.35c-.11,0-.21,0-.31,0-1.71.16-3.45.26-5.14.37-.48.03-2.7.17-3.19.2-.22.02-.45.03-.67.05l-1.26.1c-3.39.27-6.89.55-10.28.69-.41.02-.78.03-1.09.03s-.57,0-.77-.03c-.12,0-.27-.03-.34-.12l-.02-.02v-.03c-.02-.09,0-.18.06-.25.14-.18.51-.29,1.1-.33.92-.07,1.85-.12,2.76-.17.88-.05,1.78-.1,2.67-.17,1.38-.1,4.38-.3,5.83-.4,2.35-.16,4.7-.31,7-.46,1.57-.1,3.13-.21,4.7-.31h.03s.33.24.33.24l-.2.05c-.1.02-.18.12-.26.21-.07.08-.14.17-.24.23-.23.14-.48.13-.72.12Z"/><path class="cls-1" d="M36.86,37.41s0,0,0,0c.26.05.47-.09.71-.11,1.6-.16,2.8.19,4.32.34,1.55.16,2.92-.1,4.42-.35,1.5-.25,2.88-.22,4.39-.32.22-.02.46-.09.68-.11.28-.03,1.31.05,1.27-.36-.01-.13-.1-.14-.22-.14-1.39-.1-3.11.03-4.5.12-1.89.12-3.94.62-5.8.51-1.45-.09-2.94-.59-4.39-.13-.31.1-.59.26-.88.41-.01-.95.07-1.9-.13-2.83-.09-.17-.4-.3-.55-.13-.04.05-.17.83-.18.96-.19,2.46.14,5.12,0,7.6.12.27.07.64.14.89.02.06.12.25.17.35.02.06.11.04.16.03.03,0,.25-.5.26-.55.05-.23.02-.48.14-.72v-5.43Z"/><path class="cls-1" d="M29.88,35.31s0,0,0,0c.36-.76-.74-1.62-1.45-1.82-.42-.12-1.15-.07-1.57.06-.64.19-1.17.89-1.28,1.48-.05.29.04.68,0,.98-.43.04-1.38-.58-1.73-.42-.09.04-.14.14-.13.22.02.2.71.46.91.52.33.11.58.16.94.13,0,0,0,0,0,0-.04.21-.11.43-.13.64-.11,1.5.09,3.11,0,4.62.05.16.31.91.52.87.07-.01.19-.17.24-.24.29-.44.1-.89.24-1.36-.05-1.54-.01-3.09-.18-4.62-.04-.4.21-1.17.4-1.54.45-.87,1.63-.74,2.28-.12.28.27.46.88.94.61Z"/><path class="cls-1" d="M53.91,41.13c-.35.04-.77.2-1.13.26-.77.14-1.66.18-2.45.13-1.15-.08-2.34-.54-3.48-.14.17.17.43.11.63.15,1.43.29,2.67.77,4.21.72.84-.03,1.5-.23,2.28-.39,2.16-.45,4.41-.39,6.62-.57l.06-.02h0c.1-.04.08-.19-.03-.21l-.86-.12h0c-1.64-.1-3.25.16-4.87.23-.34.01-.62-.09-.98-.05Z"/><path class="cls-1" d="M57.6,37.4c-1.6.13-3.2.34-4.8.46-1.35.1-2.72.08-4.05.24-.29.03-.87.15-1.03.38.21,0,.43,0,.65,0,2.51.1,5.08-.12,7.58-.34.18-.02.37-.09.56-.11.45-.04.95-.03,1.41-.07.26-.08.47-.33.26-.55-.18-.19-.34-.02-.56,0Z"/><path class="cls-1" d="M30.33,29.7c.14-.18-.67-.27-.77-.28-.46-.03-.96.02-1.42,0-1.14-.05-2.31-.14-3.45-.17-.25,0-.56-.02-.81,0-.11,0-.2,0-.27.09.13.05.28.09.42.13,1.42.34,4.7.7,6.07.34.08-.02.14-.1.23-.1Z"/><path class="cls-1" d="M26.98,38.6c-.39.11-.28,1.28.35,1.16.81-.16.52-1.39-.35-1.16Z"/></g></svg>