<?xml version="1.0" encoding="UTF-8"?><svg id="Layer_2" xmlns="http://www.w3.org/2000/svg" viewBox="0 0 89.03 65.63"><defs><style>.cls-1{fill:#15301f;}.cls-2{fill:#969b4c;}</style></defs><g id="Layer_1-2"><path class="cls-2" d="M21.4,50.52c0-.95.7-1.68,1.6-1.68.81,0,1.46.54,1.58,1.34h-.53c-.09-.52-.51-.89-1.05-.89-.64,0-1.09.52-1.09,1.24s.45,1.25,1.09,1.25c.54,0,.96-.37,1.05-.9h.53c-.12.8-.77,1.34-1.58,1.34-.9,0-1.6-.74-1.6-1.69Z"/><path class="cls-2" d="M23,52.23c-.91,0-1.63-.76-1.63-1.72s.72-1.71,1.63-1.71c.83,0,1.49.56,1.61,1.36v.03s-.58,0-.58,0v-.02c-.09-.51-.51-.87-1.03-.87-.63,0-1.06.5-1.06,1.21s.44,1.22,1.06,1.22c.51,0,.94-.36,1.02-.88v-.02h.59v.03c-.13.81-.79,1.37-1.62,1.37ZM23,48.86c-.88,0-1.57.73-1.57,1.66s.69,1.66,1.57,1.66c.79,0,1.42-.53,1.55-1.29h-.47c-.1.53-.54.9-1.07.9-.66,0-1.12-.52-1.12-1.27s.47-1.26,1.12-1.26c.53,0,.97.37,1.07.89h.47c-.13-.76-.76-1.29-1.55-1.29Z"/><path class="cls-2" d="M30.94,51.34h-1.4l-.3.8h-.5l1.24-3.24h.55l1.23,3.24h-.53l-.29-.8ZM29.69,50.93h1.1l-.55-1.49-.55,1.49Z"/><path class="cls-2" d="M31.8,52.17h-.59v-.02s-.29-.79-.29-.79h-1.36l-.3.8h-.56v-.04s1.26-3.26,1.26-3.26h.58v.02s1.25,3.28,1.25,3.28ZM31.25,52.11h.47l-1.21-3.19h-.51l-1.22,3.19h.44l.3-.8h1.44v.02s.29.79.29.79ZM30.83,50.96h-1.18l.59-1.6.58,1.6ZM29.73,50.91h1.02l-.51-1.39-.52,1.39Z"/><path class="cls-2" d="M37.46,52.14h-1.19v-3.24h1.12c.65,0,1.05.3,1.05.85,0,.31-.18.57-.5.7.4.11.62.39.62.76,0,.59-.43.93-1.11.93ZM36.72,49.3v.97h.64c.39,0,.6-.18.6-.49s-.21-.49-.6-.49h-.64ZM36.72,50.67v1.07h.7c.42,0,.66-.2.66-.55s-.24-.53-.66-.53h-.7Z"/><path class="cls-2" d="M37.46,52.17h-1.21v-3.29h1.15c.68,0,1.07.32,1.07.88,0,.3-.17.55-.45.7.36.13.57.4.57.76,0,.59-.43.96-1.13.96ZM36.3,52.11h1.16c.68,0,1.08-.34,1.08-.9,0-.36-.21-.62-.6-.73l-.07-.02.07-.03c.3-.13.48-.38.48-.68,0-.52-.37-.82-1.02-.82h-1.1v3.19ZM37.42,51.77h-.73v-1.13h.73c.43,0,.69.21.69.56s-.26.57-.69.57ZM36.75,51.72h.67c.4,0,.64-.19.64-.52s-.23-.5-.64-.5h-.67v1.02ZM37.36,50.3h-.66v-1.03h.66c.4,0,.63.19.63.51s-.23.51-.63.51ZM36.75,50.24h.61c.37,0,.58-.17.58-.46s-.21-.46-.58-.46h-.61v.92Z"/><path class="cls-2" d="M45.02,51.34h-1.4l-.3.8h-.5l1.24-3.24h.55l1.23,3.24h-.53l-.29-.8ZM43.77,50.93h1.1l-.55-1.49-.55,1.49Z"/><path class="cls-2" d="M45.88,52.17h-.59v-.02s-.29-.79-.29-.79h-1.36l-.3.8h-.56v-.04s1.26-3.26,1.26-3.26h.58v.02s1.25,3.28,1.25,3.28ZM45.33,52.11h.47l-1.21-3.19h-.51l-1.22,3.19h.44l.3-.8h1.44v.02s.29.79.29.79ZM44.91,50.96h-1.18l.59-1.6.59,1.6ZM43.81,50.91h1.02l-.51-1.39-.52,1.39Z"/><path class="cls-2" d="M50.81,49.61v2.53h-.46v-3.24h.54l1.67,2.46v-2.46h.46v3.24h-.5l-1.71-2.53ZM50.9,48.67c-.05-.39.14-.65.43-.65s.47.28.65.28c.11,0,.18-.09.18-.31h.3c.05.38-.14.65-.44.65s-.47-.28-.65-.28c-.11,0-.18.09-.18.31h-.29Z"/><path class="cls-2" d="M53.04,52.17h-.55s-1.66-2.47-1.66-2.47v2.47h-.52v-3.29h.59s1.62,2.4,1.62,2.4v-2.4h.51v3.29ZM52.53,52.11h.46v-3.19h-.41v2.53l-1.71-2.53h-.5v3.19h.41v-2.59l1.75,2.59ZM51.22,48.7h-.34v-.02c-.03-.22.01-.41.12-.53.08-.09.2-.14.33-.14.18,0,.31.09.43.17.08.06.16.11.22.11.04,0,.07-.01.09-.03.04-.04.06-.13.06-.24v-.03s.35,0,.35,0v.02c.03.22-.02.41-.13.53-.08.09-.2.14-.33.14-.17,0-.31-.09-.42-.17-.08-.06-.16-.11-.22-.11-.04,0-.07.01-.09.04-.04.04-.06.13-.06.24v.03ZM50.93,48.65h.24c0-.12.03-.2.08-.25.03-.03.08-.05.13-.05.09,0,.16.05.26.12.11.08.23.16.39.16.12,0,.22-.04.29-.13.1-.11.14-.27.12-.46h-.25c0,.12-.03.21-.08.26-.03.03-.08.05-.13.05-.09,0-.16-.05-.26-.12-.11-.08-.23-.16-.39-.16-.12,0-.22.04-.29.13-.09.11-.13.27-.11.47Z"/><path class="cls-2" d="M59.72,51.34h-1.4l-.3.8h-.5l1.24-3.24h.55l1.23,3.24h-.53l-.29-.8ZM58.47,50.93h1.1l-.55-1.49-.55,1.49Z"/><path class="cls-2" d="M60.58,52.17h-.59v-.02s-.29-.79-.29-.79h-1.36l-.3.8h-.56v-.04s1.26-3.26,1.26-3.26h.58v.02s1.25,3.28,1.25,3.28ZM60.03,52.11h.47l-1.21-3.19h-.51l-1.22,3.19h.44l.3-.8h1.44v.02s.29.79.29.79ZM59.61,50.96h-1.18l.59-1.6.58,1.6ZM58.51,50.91h1.02l-.51-1.39-.52,1.39Z"/><path class="cls-2" d="M66.09,52.18c-.78,0-1.25-.43-1.3-1.07h.51c.02.41.28.68.78.68.41,0,.72-.19.72-.53,0-.27-.18-.41-.55-.49l-.47-.09c-.46-.09-.87-.32-.87-.87s.48-.96,1.15-.96,1.18.41,1.22,1.06h-.51c-.03-.39-.31-.66-.71-.66s-.65.25-.65.53c0,.31.27.42.57.48l.48.09c.56.11.87.36.87.84,0,.56-.45.99-1.24.99Z"/><path class="cls-2" d="M66.09,52.21c-.77,0-1.28-.42-1.32-1.1v-.03s.56,0,.56,0v.03c.02.42.29.65.75.65.42,0,.69-.2.69-.5,0-.25-.15-.38-.53-.46l-.47-.09c-.59-.12-.89-.42-.89-.9,0-.57.5-.98,1.18-.98s1.21.43,1.25,1.08v.03s-.56,0-.56,0v-.03c-.03-.38-.3-.63-.69-.63-.43,0-.62.26-.62.5,0,.3.28.39.55.45l.48.09c.61.12.89.4.89.87,0,.61-.51,1.02-1.26,1.02ZM64.82,51.14c.05.63.54,1.02,1.27,1.02s1.21-.38,1.21-.97c0-.44-.26-.69-.84-.81l-.48-.09c-.29-.06-.59-.17-.59-.51,0-.27.21-.56.68-.56.41,0,.7.26.74.66h.45c-.05-.6-.53-1-1.19-1s-1.12.39-1.12.93c0,.45.29.73.85.84l.47.09c.4.09.57.24.57.51,0,.33-.3.56-.74.56-.48,0-.77-.25-.81-.68h-.45Z"/><path class="cls-1" d="M6.91,53.14c.04.09.1.17.13.26.15.31.29.63.44.93.04.12.11.24.17.37.17.4.36.79.53,1.17.11.24.23.49.32.73.13.33.27.66.42,1,.15.38.29.77.42,1.13.02.07.06.14.08.21.19.45.38.93.59,1.38.04.14.1.28.15.42.02.03.04.09.06.14.19.24.23.54.34.8.08.16.13.3.21.45.15.37.34.72.48,1.1.04.07.08.14.11.21.15.33.31.68.53,1,.11.16.27.3.46.38.25.1.5.21.74.31.06.14.06.19,0,.33l-.02.02h-4.81s-.02-.02-.04-.02c-.02-.1-.02-.23.02-.33.06,0,.08-.02.11,0,.25,0,.48-.05.71-.16.21-.1.34-.24.34-.49,0-.26-.04-.51-.13-.75-.08-.17-.15-.35-.23-.51-.11-.21-.19-.42-.27-.63-.13-.31-.27-.63-.44-.94-.13-.02-.29-.02-.42,0-.21.02-.42.03-.63.03-.48,0-.94,0-1.41-.03-.52-.03-1.05,0-1.56.02-.27,0-.53.02-.8.03-.02.04-.04.07-.06.1-.21.52-.42,1.03-.63,1.54-.11.3-.21.59-.32.89-.02.05-.04.1-.04.16-.02.1.02.21.11.31.1.1.23.19.38.23.21.07.44.14.67.19.06.02.13.03.21.03.02.1.02.19,0,.3h-.19c-1.11,0-2.21.02-3.32.02-.11,0-.23,0-.34-.05.02-.03.02-.05.02-.09.04-.23.06-.23.29-.26.19-.02.38-.04.55-.07.11-.02.23-.05.34-.1.06-.04.11-.09.15-.14.17-.26.32-.52.44-.82.19-.4.36-.82.53-1.24.19-.47.4-.94.63-1.41.08-.1.11-.24.17-.37.31-.79.59-1.59.9-2.39.17-.45.38-.91.55-1.36.23-.58.46-1.15.69-1.73.1-.23.17-.44.27-.66.1-.24.11-.49.13-.75,0-.07-.02-.16-.06-.24-.06-.14-.17-.19-.32-.19s-.31.02-.46.02c-.02,0-.06.02-.1.02-.1,0-.11-.02-.13-.1,0-.1-.02-.23-.02-.35.36-.09,1.89-.1,2.33-.04ZM8.03,60.99c-.15-.38-.31-.79-.48-1.17-.25-.56-.53-1.12-.74-1.69-.13-.35-.29-.68-.44-1.03-.11-.31-.23-.61-.34-.91-.02-.05-.06-.09-.08-.14-.02-.03-.02-.09-.1-.1-.04.07-.06.12-.1.19-.23.56-.46,1.13-.69,1.69-.11.26-.21.54-.32.8-.02.03-.02.05-.04.09-.11.26-.23.54-.34.8-.19.45-.36.93-.55,1.38-.02.04-.02.07-.04.1h.19c.52,0,1.01.04,1.51.05.29.02.55,0,.84,0,.23,0,.46-.02.71-.02.23.02.48,0,.71,0,.11,0,.21-.02.31-.02v-.03Z"/><path class="cls-1" d="M16.85,61.8v.45c0,.12,0,.24-.03.37-.01.1-.01.2-.01.28-.01.34,0,.68.04,1.03.01.17.01.34.04.53.01.18.08.35.28.44.11.06.23.11.35.12.11.02.21.05.33.07.01.11,0,.22,0,.33-.07.01-.15.02-.21.02-.28.02-.56.04-.83.05h-.16c-.45.01-.92,0-1.38-.02-.15,0-.29-.02-.44-.04h-.39c-.03-.11-.03-.27-.01-.39.04-.01.07-.02.11-.04.13-.02.25-.06.39-.09.04-.01.07-.01.09-.02.16-.06.28-.15.32-.31.04-.17.07-.35.07-.53v-2.52c0-.55.01-1.09.04-1.64.01-.27.01-.54.01-.81,0-.31-.03-.6-.03-.89-.01-.17-.05-.33-.12-.49-.04-.12-.15-.21-.25-.29-.12-.1-.25-.15-.41-.17-.08,0-.15-.02-.23-.04-.03-.11-.01-.2,0-.31.03,0,.05-.01.08-.01.19.01.36.01.55.01h.07c.13-.04.27-.02.4-.04.08,0,.17-.01.25-.01h.94c.32,0,.63,0,.95.01.13,0,.27.01.4.01.36.02.72.09,1.07.15.13.01.25.04.39.06.24.04.45.12.67.23.13.07.28.15.43.22.05.02.11.07.16.11.08.07.16.15.23.22.09.09.16.18.2.29.04.12.09.23.15.34.04.11.07.21.09.32.04.2.07.4.05.61-.01.21-.03.4-.11.6-.08.22-.19.43-.36.6-.07.07-.13.13-.2.21-.13.15-.32.24-.51.33-.32.13-.64.22-.96.32-.11.02-.21.04-.32.06-.03,0-.07.01-.13.02.12.05.23.07.32.11.04.02.09.05.15.07.24.16.48.33.65.55.12.15.21.31.31.45.23.38.47.75.68,1.12.12.2.23.39.33.59.12.24.32.4.59.49.09.02.19.04.29.05h.23c.01.13,0,.27.01.4-.09.02-.17.02-.25.04-.16,0-.33.01-.49.01-.47.01-.91-.07-1.34-.24-.21-.09-.39-.21-.52-.38-.05-.05-.09-.1-.15-.15-.19-.2-.31-.43-.45-.66-.03-.05-.07-.11-.11-.16-.13-.2-.23-.4-.35-.6-.07-.11-.13-.22-.2-.33-.05-.09-.11-.17-.16-.26-.04-.06-.07-.11-.09-.16-.15-.22-.31-.42-.51-.59-.09-.09-.2-.15-.33-.17-.21-.06-.43-.05-.64-.05,0,.02-.01.05-.01.07ZM17.33,61.13c.39.01.77-.02,1.15-.07.32-.04.6-.17.81-.38.05-.05.11-.1.15-.16.13-.21.24-.42.29-.65.07-.23.08-.46.08-.7,0-.06-.01-.11-.01-.17-.03-.22-.11-.42-.19-.62-.05-.17-.15-.33-.29-.48-.07-.07-.16-.16-.25-.22-.13-.07-.29-.15-.44-.21-.07-.04-.15-.06-.23-.07-.12-.01-.23-.01-.35-.04-.12-.01-.24,0-.36.02-.17.02-.32.1-.48.15-.11.02-.17.09-.25.15-.05.04-.08.09-.08.13-.01.1-.03.2-.03.31,0,.21-.01.42-.01.62,0,.49-.01.98-.01,1.47,0,.29.01.59.03.87,0,.01,0,.02.01.05.16,0,.32-.01.47,0Z"/><path class="cls-1" d="M30.42,64.44s-.03.02-.04.04c-.13.13-.28.28-.47.38-.27.16-.53.33-.83.44-.2.07-.41.13-.63.2-.13.04-.27.06-.4.07-.27.04-.53.02-.8,0-.27-.01-.53-.05-.79-.1-.36-.06-.72-.13-1.08-.24-.05-.02-.11-.04-.16-.06-.05-.02-.11-.06-.17-.09-.21-.09-.41-.22-.6-.35-.12-.1-.23-.22-.35-.33-.19-.18-.36-.4-.49-.64-.09-.16-.19-.32-.28-.48-.15-.28-.24-.59-.32-.89-.08-.34-.12-.7-.12-1.05-.01-.46.04-.93.17-1.38.04-.15.07-.31.12-.45.04-.13.11-.26.16-.39.13-.31.35-.56.59-.82.09-.11.19-.22.28-.32.13-.15.31-.26.47-.37.05-.04.12-.07.19-.12.25-.18.53-.33.84-.44.17-.07.36-.13.55-.16h.03c.17-.07.37-.06.56-.11.07-.01.15-.02.23-.02.11-.01.23-.02.35-.02.21,0,.44.01.65.04.12.01.24.01.36.04.13.01.27.04.4.07.15.04.29.07.43.12.27.1.52.22.72.4.07.05.09.11.09.2.01.21.03.4.03.61.01.28.04.57.05.86v.12c-.15.07-.27.1-.45.07-.01-.02-.03-.06-.03-.1,0-.27-.12-.53-.23-.77-.11-.24-.27-.45-.47-.64-.29-.26-.64-.43-1.06-.5-.23-.04-.47-.02-.69,0-.13,0-.25.01-.39.02-.19.02-.37.05-.55.12-.32.12-.63.29-.86.54-.35.33-.6.72-.73,1.16-.01.05-.03.1-.04.13-.08.18-.11.37-.12.55-.05.37-.05.73-.05,1.1,0,.31,0,.6.04.89,0,.09.03.18.05.26.11.27.2.54.31.81.07.15.15.31.27.43.07.07.11.17.16.24.04.06.09.12.15.18.09.11.2.21.31.32.03.02.05.05.08.07.11.09.23.17.33.24.05.04.11.07.16.1.12.06.25.12.39.17.09.04.17.09.28.11.21.07.43.11.65.13.2.02.39.05.59.05.17,0,.33-.02.51-.06.09-.01.19-.06.27-.1.23-.11.44-.21.67-.32.12-.06.23-.15.33-.24.03-.04.07-.06.11-.09.12.11.2.23.28.35Z"/><path class="cls-1" d="M35.91,56.83c.03.06.07.12.09.18.11.22.2.44.31.65.03.09.08.17.12.26.12.28.25.55.37.82.08.17.16.34.23.51.09.23.19.46.29.7.11.27.2.54.29.79.01.05.04.1.05.15.13.32.27.65.41.97.03.1.07.2.11.29.01.02.03.06.04.1.13.17.16.38.24.56.05.11.09.21.15.32.11.26.24.5.33.77l.08.15c.11.23.21.48.37.7.08.11.19.21.32.27.17.07.35.15.52.22.04.1.04.13,0,.23h-.01c-1.1.01-2.19.01-3.29.01h-.08s-.01-.01-.03-.01c-.01-.07-.01-.16.01-.23.04,0,.05-.01.08,0,.17,0,.33-.04.49-.11.15-.07.24-.17.24-.34,0-.18-.03-.35-.09-.53-.05-.12-.11-.24-.16-.35-.08-.15-.13-.29-.19-.44-.09-.22-.19-.44-.31-.66-.09-.01-.2-.01-.29,0-.15.01-.29.02-.44.02-.33,0-.65,0-.99-.02-.36-.02-.73,0-1.1.01-.19,0-.37.01-.56.02-.01.02-.03.05-.04.07-.15.37-.29.72-.44,1.08-.08.21-.15.42-.23.62-.01.04-.03.07-.03.11-.01.07.01.15.08.22.07.07.16.13.27.16.15.05.31.1.47.13.04.01.09.02.15.02.01.07.01.13,0,.21h-.13c-.77,0-1.55.01-2.32.01-.08,0-.16,0-.24-.04.01-.02.01-.04.01-.06.03-.16.04-.16.2-.18.13-.01.27-.02.39-.05.08-.01.16-.04.24-.07.04-.02.08-.06.11-.1.12-.18.23-.37.31-.57.13-.28.25-.57.37-.87.13-.33.28-.66.44-.99.05-.07.08-.17.12-.26.21-.55.41-1.11.63-1.67.12-.32.27-.64.39-.95.16-.4.32-.81.48-1.21.07-.16.12-.31.19-.46.07-.17.08-.34.09-.53,0-.05-.01-.11-.04-.17-.04-.1-.12-.13-.23-.13s-.21.01-.32.01c-.01,0-.04.01-.07.01-.07,0-.08-.01-.09-.07,0-.07-.01-.16-.01-.24.25-.06,1.32-.07,1.63-.02ZM36.7,62.33c-.11-.27-.21-.55-.33-.82-.17-.39-.37-.78-.52-1.19-.09-.24-.2-.48-.31-.72-.08-.22-.16-.43-.24-.64-.01-.04-.04-.06-.05-.1-.01-.02-.01-.06-.07-.07-.03.05-.04.09-.07.13-.16.39-.32.79-.48,1.19-.08.18-.15.38-.23.56-.01.02-.01.04-.03.06-.08.18-.16.38-.24.56-.13.32-.25.65-.39.97-.01.02-.01.05-.03.07h.13c.36,0,.71.02,1.06.04.2.01.39,0,.59,0,.16,0,.32-.01.49-.01.16.01.33,0,.49,0,.08,0,.15-.01.21-.01v-.02ZM34.67,56.05c.07.05.12.1.17.16.12.1.23.1.33,0,.12-.1.24-.2.35-.31.09-.1.21-.18.32-.28.03-.02.07-.05.08-.07.07-.1.15-.16.24-.23.04-.05.04-.06.01-.11-.05-.13-.13-.26-.27-.34-.09-.1-.2-.18-.31-.27-.12-.09-.28-.06-.37.05-.04.05-.08.12-.12.18-.08.18-.15.35-.23.54l-.08.15c-.07.12-.12.24-.17.37-.01.01-.01.04-.03.04,0,.06.03.11.07.13Z"/><path class="cls-1" d="M41.23,56.82s.07-.01.09-.01c.28-.02.55-.04.83-.01.31.02.61.05.91.07.13,0,.25.01.39.01.07,0,.11.01.15.07.09.17.24.32.37.45.28.28.53.57.79.88.15.18.27.39.4.57.19.26.39.5.57.75.15.18.28.38.41.56.31.44.61.88.92,1.32.29.43.6.84.91,1.27,0,0,.01.01.04.04,0-.04.01-.06.01-.09,0-.16,0-.32.01-.48,0-.04.01-.07.01-.11.01-.04.01-.06.01-.09-.01-.31-.03-.6-.04-.89-.01-.11,0-.23,0-.35v-.44c.01-.46.01-.94.01-1.41,0-.2-.03-.4-.04-.6,0-.15,0-.28-.01-.43,0-.1-.01-.2-.04-.29-.03-.12-.13-.18-.24-.22-.08-.04-.17-.07-.27-.1-.12-.05-.25-.06-.39-.09-.03-.01-.07-.01-.09-.02-.01-.09-.01-.18,0-.27l.24-.04c.08-.01.16,0,.24,0,.19-.01.36.01.55-.01.04-.01.09,0,.15,0,.23-.01.45-.01.67,0,.23,0,.47.01.69.01.04.01.08.01.13.02.03.09,0,.18,0,.27-.03.01-.05.02-.08.02-.13.02-.25.05-.39.09-.17.05-.32.13-.44.27-.05.06-.08.12-.08.2-.01.13-.01.27-.01.42,0,.32.01.65.03.98,0,.46,0,.94-.01,1.41-.03.86-.01,1.72-.01,2.58,0,.66.01,1.31.01,1.95,0,.1,0,.2-.05.28-.04.05-.08.09-.15.09-.11-.01-.21-.01-.32-.02-.04,0-.07-.01-.08-.05-.09-.1-.17-.2-.25-.31-.07-.07-.13-.16-.2-.24-.16-.2-.33-.38-.49-.59-.28-.37-.57-.73-.86-1.1-.21-.29-.41-.59-.63-.87-.2-.28-.41-.56-.61-.84-.03-.04-.07-.09-.08-.12-.12-.22-.27-.42-.41-.62-.11-.15-.23-.29-.35-.45-.12-.16-.23-.32-.35-.48-.13-.18-.27-.35-.39-.53-.15-.2-.28-.38-.39-.59-.07-.11-.13-.21-.23-.33v.12c0,.51,0,1.03-.01,1.54-.01.42-.03.83-.03,1.25.01.39.03.77.04,1.16,0,.11,0,.23-.01.34-.03.23-.03.45,0,.68v1.08c0,.13.05.24.16.33.17.16.4.23.64.23.05.01.09.01.15.02.03.1.01.18.01.28,0,.04-.03.06-.08.06-.11,0-.23.01-.33.01h-1.3c-.21,0-.43-.01-.64-.02-.04,0-.07,0-.09-.01-.01-.11,0-.22.01-.34.05,0,.11-.01.15-.02h.09c.16,0,.31-.05.44-.11.08-.05.15-.11.16-.2,0-.04.01-.09.03-.13.01-.42.04-.83.04-1.25.03-.83.03-1.66.03-2.49.01-.64.01-1.28,0-1.92,0-.24-.01-.49-.03-.73-.01-.18-.07-.34-.15-.51,0-.02-.01-.05-.04-.06-.12-.13-.23-.27-.4-.34t-.03-.01c-.11-.06-.21-.13-.36-.12-.01-.11-.01-.22-.03-.33Z"/><path class="cls-1" d="M57.21,59.41s-.01-.06-.01-.09c-.01-.18-.05-.37-.11-.54-.08-.27-.21-.5-.39-.73-.05-.06-.09-.13-.13-.2-.12-.13-.27-.26-.41-.37-.01-.02-.04-.04-.07-.04-.19-.09-.37-.17-.59-.21-.19-.02-.37-.06-.57-.05-.23,0-.45.04-.68.07-.07,0-.12.01-.19.02-.17.02-.33.09-.48.16-.03.01-.07.04-.09.05-.17.07-.31.18-.44.29-.19.16-.32.35-.47.54-.05.06-.08.15-.12.22-.13.21-.23.43-.31.66-.09.26-.13.53-.15.79-.04.35,0,.71-.01,1.06,0,.22,0,.43.01.64,0,.27.04.53.11.78.05.22.11.43.17.64.03.09.05.17.09.24.11.22.25.42.39.61,0,.01.01.02.03.02.11.11.23.23.35.33.15.11.29.22.45.31.12.09.27.16.41.2.13.05.25.07.37.11.04.01.08.01.11.02.08.01.17.02.25.04.15.01.29.02.43.04.19.01.37.01.56-.01.19-.02.36-.06.53-.12.07-.02.09-.05.11-.11.09-.28.15-.56.15-.87,0-.17.01-.33.03-.5,0-.17.01-.33.01-.49-.01-.22-.07-.43-.16-.62-.04-.07-.08-.15-.12-.22-.04-.07-.08-.13-.16-.16-.08-.05-.15-.09-.23-.12-.07-.02-.13-.05-.2-.06-.11-.02-.2-.04-.32-.05-.01-.13,0-.27.03-.42h.12c.37,0,.75,0,1.12.01.21,0,.41.01.61.01.19,0,.36-.01.53-.01h.75s.03.11.03.17c.01.06.01.11.03.18-.08.01-.16.02-.24.04-.28.07-.48.28-.49.55-.01.27-.04.54-.05.79v1.63c0,.09-.01.17-.03.27-.03.01-.05.04-.09.05-.15.07-.29.15-.44.22-.12.05-.24.1-.35.12-.39.11-.77.2-1.18.26-.16.02-.33.02-.49.04-.36.01-.73-.04-1.1-.1-.28-.04-.55-.1-.81-.17-.23-.06-.43-.15-.63-.26-.12-.07-.24-.13-.37-.2-.23-.11-.41-.27-.59-.44-.12-.11-.23-.22-.33-.33-.27-.27-.51-.55-.68-.88-.04-.09-.08-.17-.11-.26-.09-.29-.17-.59-.21-.89-.01-.13-.01-.27-.01-.39,0-.22,0-.43.01-.65,0-.16.03-.32.05-.48.03-.22.07-.43.12-.64.04-.17.09-.33.15-.5.13-.35.29-.7.52-1.01.08-.11.19-.22.28-.33.16-.17.31-.33.48-.46.21-.17.43-.33.68-.45.15-.07.31-.13.47-.2.31-.11.63-.18.95-.26.13-.02.29-.02.44-.02.39-.01.77.01,1.16.07.2.02.41.07.63.12.25.05.49.13.74.21.13.05.25.12.39.16.08.02.12.07.12.16-.01.31-.01.62,0,.93,0,.21.01.43.01.64.01.09.03.18.03.28.01.01,0,.04,0,.06-.13.02-.25.05-.39.07Z"/><path class="cls-1" d="M59.31,56.99s.09-.02.15-.02c.21,0,.44-.01.67-.01.73,0,1.47-.01,2.2-.01h.61c.07,0,.13.01.2.01s.13.01.21,0c.33-.02.68-.01,1.02-.01.2.01.4.01.6.01.23.01.45-.02.68-.05.01,0,.03-.01.04-.01.07,0,.09.01.11.07,0,.01,0,.04.01.05.01.21.04.4.05.6.01.21.01.42.01.62,0,.1.01.21.03.31,0,.1,0,.2.01.29,0,.02-.01.05-.01.07-.11.05-.23.04-.33.07-.01-.04-.03-.05-.03-.07-.04-.1-.07-.2-.09-.31-.01-.05-.03-.11-.04-.16-.04-.17-.11-.32-.17-.48-.09-.2-.27-.32-.48-.4-.08-.04-.16-.05-.25-.05-.27,0-.52-.01-.79.01-.2.01-.39-.01-.57-.01h-.55c-.12,0-.25.02-.39.04-.12.01-.23.1-.29.18-.04.05-.05.13-.05.2v2.44c0,.12-.03.26-.03.39,0,.04,0,.07.01.12.04.01.07.01.11.01.05,0,.09.01.15.02.23.04.45.06.69.06.15-.01.28,0,.43-.01.13-.01.25-.04.37-.06.19-.02.37-.07.55-.12.13-.02.23-.1.33-.17.05-.04.07-.1.07-.15.04-.21.08-.4.11-.61.08-.01.17-.01.28,0,0,.06,0,.11.01.16.03.32.05.65.05.98,0,.42,0,.83.01,1.25v.24c-.09.05-.2.04-.29.05-.03-.05-.01-.09-.03-.13-.03-.23-.09-.46-.25-.67-.03-.04-.08-.07-.13-.1-.21-.1-.43-.15-.67-.15h-1.34c-.13,0-.28.01-.43.02,0,.02-.01.04-.01.06,0,.17-.01.33-.01.5,0,.2,0,.4-.03.6-.04.54-.04,1.09-.03,1.63v.12c-.01.16.08.24.2.31.09.06.2.09.32.1.09.01.2.01.29.02.27.01.52.02.79.04h.39c.21-.01.43-.02.64-.04.32-.01.6-.11.83-.32.09-.1.19-.2.25-.31.19-.26.32-.53.44-.81.01-.04.03-.07.05-.12.13-.01.25-.02.39,0,.01.09,0,.18-.03.27-.11.38-.2.78-.35,1.16-.05.16-.12.33-.17.5,0,.05-.03.09-.04.12-.2.04-.37.02-.56.04-.2,0-.4.01-.6.02-.07,0-.13.01-.2.01-.31.01-.61.04-.92.05-.56,0-1.11.01-1.67,0-.47-.02-.95-.02-1.42-.02-.31,0-.6.01-.91.02h-.29c-.04-.1-.03-.2-.03-.28.01-.01.01-.02.03-.02.13-.04.28-.1.41-.12.16-.05.31-.11.45-.2.12-.06.19-.17.21-.31.01-.06.03-.12.03-.17.01-.38.03-.76,0-1.14-.04-.7-.05-1.41-.04-2.1.01-.28,0-.57.01-.86,0-.38.03-.77.04-1.15.01-.27.03-.54-.01-.81-.04-.27-.11-.51-.24-.76-.04-.06-.09-.11-.17-.15-.16-.09-.32-.15-.51-.16-.04,0-.07-.01-.11-.02v-.24Z"/><path class="cls-1" d="M67.32,56.9c.13-.04.27-.02.4-.02h1.03c.23,0,.47-.01.71,0,.25,0,.51.02.76.04h.55s.04.01.07.01c.01.1.01.18.03.28-.11.05-.21.07-.33.1-.12.04-.25.04-.39.09-.09.05-.16.1-.21.17-.11.13-.16.28-.19.44-.05.48-.07.95,0,1.43v2.06c.01.43.03.86.04,1.28v1.19c0,.18.01.35.01.54v.02c.01.18.13.28.31.31.24.05.48.1.73.09.08,0,.16.01.24.01.2-.01.4-.02.6-.04h.13c.23-.02.47-.05.69-.07.09,0,.17-.02.27-.04s.17-.06.24-.12c.25-.22.48-.45.63-.75.08-.13.13-.28.2-.43.08-.02.33-.02.44,0v.05c-.2.62-.39,1.23-.55,1.86,0,.02-.01.02-.03.05-.13.01-.28.02-.43.02-.35,0-.69-.01-1.04-.01-.37,0-.76-.01-1.15-.01-.23,0-.47-.01-.69-.01-.4,0-.79,0-1.19.01-.45.01-.9.02-1.34.01-.16-.01-.32-.01-.48-.01h-.11c-.01-.1-.03-.18-.01-.28.11-.05.21-.09.33-.12.17-.04.35-.11.51-.2.04-.02.08-.06.09-.11.11-.15.13-.31.13-.48,0-.43.01-.86.01-1.3s0-.9-.01-1.36c0-.43-.01-.84-.03-1.27,0-.23.03-.48.03-.71.01-.1.01-.2.01-.31,0-.34,0-.68-.01-1.04,0-.1-.01-.21-.01-.31,0-.05-.01-.09-.03-.12-.03-.07-.07-.15-.11-.22-.05-.12-.15-.21-.29-.26-.17-.05-.35-.11-.52-.16-.03,0-.04-.01-.05-.01v-.31Z"/><path class="cls-1" d="M75.08,56.99s.09-.02.15-.02c.21,0,.44-.01.67-.01.73,0,1.47-.01,2.2-.01h.61c.07,0,.13.01.2.01s.13.01.21,0c.33-.02.68-.01,1.02-.01.2.01.4.01.6.01.23.01.45-.02.68-.05.01,0,.03-.01.04-.01.07,0,.09.01.11.07,0,.01,0,.04.01.05.01.21.04.4.05.6.01.21.01.42.01.62,0,.1.01.21.03.31,0,.1,0,.2.01.29,0,.02-.01.05-.01.07-.11.05-.23.04-.33.07-.01-.04-.03-.05-.03-.07-.04-.1-.07-.2-.09-.31-.01-.05-.03-.11-.04-.16-.04-.17-.11-.32-.17-.48-.09-.2-.27-.32-.48-.4-.08-.04-.16-.05-.25-.05-.27,0-.52-.01-.79.01-.2.01-.39-.01-.57-.01h-.55c-.12,0-.25.02-.39.04-.12.01-.23.1-.29.18-.04.05-.05.13-.05.2v2.44c0,.12-.03.26-.03.39,0,.04,0,.07.01.12.04.01.07.01.11.01.05,0,.09.01.15.02.23.04.45.06.69.06.15-.01.28,0,.43-.01.13-.01.25-.04.37-.06.19-.02.37-.07.55-.12.13-.02.23-.1.33-.17.05-.04.07-.1.07-.15.04-.21.08-.4.11-.61.08-.01.17-.01.28,0,0,.06,0,.11.01.16.03.32.05.65.05.98,0,.42,0,.83.01,1.25v.24c-.09.05-.2.04-.29.05-.03-.05-.01-.09-.03-.13-.03-.23-.09-.46-.25-.67-.03-.04-.08-.07-.13-.1-.21-.1-.43-.15-.67-.15h-1.34c-.13,0-.28.01-.43.02,0,.02-.01.04-.01.06,0,.17-.01.33-.01.5,0,.2,0,.4-.03.6-.04.54-.04,1.09-.03,1.63v.12c-.01.16.08.24.2.31.09.06.2.09.32.1.09.01.2.01.29.02.27.01.52.02.79.04h.39c.21-.01.43-.02.64-.04.32-.01.6-.11.83-.32.09-.1.19-.2.25-.31.19-.26.32-.53.44-.81.01-.04.03-.07.05-.12.13-.01.25-.02.39,0,.01.09,0,.18-.03.27-.11.38-.2.78-.35,1.16-.05.16-.12.33-.17.5,0,.05-.03.09-.04.12-.2.04-.37.02-.56.04-.2,0-.4.01-.6.02-.07,0-.13.01-.2.01-.31.01-.61.04-.92.05-.56,0-1.11.01-1.67,0-.47-.02-.95-.02-1.42-.02-.31,0-.6.01-.91.02h-.29c-.04-.1-.03-.2-.03-.28.01-.01.01-.02.03-.02.13-.04.28-.1.41-.12.16-.05.31-.11.45-.2.12-.06.19-.17.21-.31.01-.06.03-.12.03-.17.01-.38.03-.76,0-1.14-.04-.7-.05-1.41-.04-2.1.01-.28,0-.57.01-.86,0-.38.03-.77.04-1.15.01-.27.03-.54-.01-.81-.04-.27-.11-.51-.24-.76-.04-.06-.09-.11-.17-.15-.16-.09-.32-.15-.51-.16-.04,0-.07-.01-.11-.02v-.24Z"/><path class="cls-1" d="M83.32,63.24v-.37s.04-.07.08-.07c.08-.01.15-.04.23-.04.07-.01.09.02.11.09,0,.01.01.04,0,.06-.01.22.05.43.13.64.04.1.08.18.12.27.04.07.09.13.13.2.03.04.07.06.09.1.11.12.23.26.33.38.01.01.03.02.05.04.19.13.39.28.61.37.04.01.08.04.12.05.19.1.4.13.61.13s.43-.01.64-.05c.25-.04.48-.15.65-.32.07-.09.13-.18.17-.27.11-.21.19-.42.2-.65v-.5c0-.06-.04-.12-.05-.18-.08-.28-.25-.53-.45-.75-.13-.16-.31-.29-.47-.43-.15-.13-.32-.21-.51-.27-.12-.05-.24-.1-.36-.16h-.03c-.08-.1-.2-.12-.29-.17-.09-.04-.16-.09-.24-.12-.05-.04-.09-.06-.15-.09-.23-.1-.41-.24-.6-.39-.17-.15-.35-.31-.49-.48-.01-.02-.03-.04-.04-.06-.23-.37-.45-.72-.49-1.15-.01-.18-.01-.37.03-.55.07-.26.17-.5.29-.75.07-.11.13-.2.23-.28.12-.11.23-.22.36-.32.12-.09.25-.17.39-.24.31-.16.65-.23,1-.29.21-.04.44-.04.65-.02.25,0,.51.05.73.13.23.09.45.16.65.27.05.02.12.04.17.04.07-.01.08-.02.08-.07h0q.03-.16.17-.16h.23c.09,0,.13.02.15.12.01.11.01.22.01.33v1.88c-.01.06-.04.09-.12.1-.04.01-.08.01-.13.01-.07,0-.11-.02-.11-.09-.01-.18-.09-.34-.15-.51-.03-.11-.09-.2-.15-.29-.03-.06-.07-.12-.09-.18-.08-.18-.2-.33-.37-.45-.19-.12-.37-.22-.57-.32-.29-.13-.6-.17-.92-.12-.16.01-.31.04-.44.1-.17.06-.32.17-.43.32-.12.16-.19.34-.21.54-.01.15-.03.29-.03.45-.01.11.03.23.08.33.01.04.04.07.05.11.05.13.16.24.27.35.2.18.44.31.65.45.12.09.24.17.36.24.13.07.28.15.43.22.04.02.09.04.13.06.27.15.53.29.81.44.04.01.07.04.11.06.29.21.55.44.75.72.16.21.31.45.4.7.01.02.01.05.03.07.04.32.09.64.08.97,0,.07-.01.15-.03.22-.05.18-.15.37-.24.54-.12.22-.27.42-.44.6-.21.22-.45.4-.75.53-.04.01-.08.02-.12.05-.15.07-.32.13-.49.16-.21.02-.41.06-.63.1h-.01c-.16,0-.32.02-.48.02-.29.01-.57-.05-.86-.12-.12-.04-.24-.09-.36-.12-.16-.05-.31-.13-.44-.21-.17-.07-.32,0-.33.17q-.03.16-.2.16c-.05,0-.11.01-.15.01-.17,0-.19-.01-.2-.17v-.26c0-.32.01-.64.01-.95h-.01c.01-.31.01-.6.03-.89Z"/><path class="cls-2" d="M64.93,38.13c.08-.22,1.06-.65,1.11-.95l.12.03c0,.17-.02.34,0,.51.02.26.11.58.12.84.04.72-.16,2.17.19,2.75.05.08.15.13.2.21.1.15.12.36.39.44.16.05.69-.25.78-.39.2-.3.02-.8.16-1.15v-3.58c.1-.02.12.03.18.08.22.21.45.6.68.84.66.69,1.36,1.23,2.39,1.37.4.05,1,0,1.1-.44.16-.66-.92-.69-1.39-.88-.4-.16-.85-.57-1.15-.87-.23-.23-1.82-2.08-1.82-2.22v-1.07s-.12-.15.03-.14c.07,0,.18.21.24.26,1.15,1.03,3.24,2.1,4.82,2.32.16.02.7.02.85-.01.25-.06.37-.42.65-.44v-.3c-.66-.26-1.37-.4-2.04-.67-1.78-.72-3.44-2.01-4.15-3.7-.14-.33-.37-.93-.34-1.27,0-.08-.05-.16.09-.14l1.04,1.05c.98.72,2.7,2.16,4.02,2.16.36,0,.8-.27.62-.62-.12-.23-1.36-1.01-1.66-1.24-1.28-.98-2.51-2.07-3.39-3.38-.18-.26-.61-.95-.7-1.22-.02-.06-.06-.31.08-.24.08.04.47.54.59.64.45.39,1.35.98,1.92,1.17.47.16,1.45.34,1.77-.1.41-.55-.47-.59-.85-.75-1.21-.5-2.25-1.56-2.88-2.61-.36-.6-1.04-1.96-.97-2.61.01-.09,0-.14.1-.19.66.84,1.59,1.65,2.6,2.13.45.21.86.35,1.37.29,0,0,0,0,0,0,.13-.61-.45-.95-.83-1.35-1.14-1.17-2.38-2.39-2.91-3.93-.13-.39-.15-1.04-.31-1.35-.05-.1-.18-.11-.2-.17-.04-.13-.09-.46-.12-.61-.03-.17.04-.38-.04-.53-.06-.12-.47-.29-.61-.28-.09,0-.52.27-.56.34-.06.11-.01.24-.04.35-.17.6-.13,1.05-.28,1.6-.24.86-.57,1.92-1.04,2.71-.28.48-.7.9-1.13,1.27-.17.14-.44.27-.59.42-.23.22-.44.66-.05.83.76.35,1.41-.42,1.97-.79l.7-.8c.03-.06.12.05.12.06v2.08s-.11.09-.14.16c-.22.52-.32.91-.73,1.36-.14.16-.8.79-1.04.76-.02,0-.09.13-.1.12l.52.94.18-.06s.05-.03.06-.06c.04-.08.19-.21.23-.24.21-.13.44-.24.64-.4.12-.1.14-.29.37-.25v1.44s-.89,1.2-.89,1.2l.96,1.36c.1.13.37.29.37.46,0,.14-.16.26-.23.38,0,0,0,0,0,0l-.05.27c-.12.21-.16.06-.4.09l-.89.14.14,2.93c.07-.12.65-.61.72-.67.07-.06.12-.14.24-.11.12.07.25.19.28.32.04.16.04.78,0,.93-.04.16-.5.61-.79.88-.07.06-.46.08-.46-.01l.04,2.26Z"/><path class="cls-2" d="M21.96,34.54c-.19,0-.56-.06-.64-.08-1.14-.28-1.76-2-2.03-2.93-.02-.07-.11-.12-.11-.13v-1.55c.1-.02.13.03.18.08.17.16.3.35.49.51.13.11.3.19.44.3.04.03.05.1.02.14l.68-.86c-.13.13-.08-.03-.18-.12-.54-.47-.91-.69-1.22-1.36-.06-.14-.42-1.08-.42-1.14v-2.22c.11-.02.12.03.18.09.22.28.37.61.63.89.21.23.71.72,1.02.76.91.11,1.15-.52,1.57-1.08.08-.11.17-.22.26-.34.17-.24.35-.25.52-.15.06.04.13,2.9.19,2.97.45.45.89-1.43,1.33-2.07.13-.29-.02-4.21-.1-4.51-.01-.05-.09-.12-.09-.14v-.87c.14-.02.1,0,.14.07.05.08.08.18.14.26.64.81,1.44.26,1.37-.57-.51-.79-.98-1.62-1.26-2.51-.2-.62-.19-1.2-.34-1.77-.03-.12-.17-.24-.22-.42-.09-.32-.01-1.07-.2-1.23-.07-.06-.15-.06-.23-.1-.05-.02-.03-.15-.29-.09-.03,0-.3.36-.39.43,0,0,0,0,0,.01-.16.79-.08,1.61-.27,2.39-.33,1.34-.74,2.95-1.74,4.04-.32.35-.88.63-.7,1.2.04.12.4.3.52.31.29.03,1.06-.76,1.24-.98.19-.24.33-.54.51-.77.05-.07.07-.11.18-.09v2.11c0,.12-.75,1.36-.88,1.56-.21.34-.57.93-.82,1.22-.03.04-.09.14-.15.09-.88-.74-1.4-1.78-1.71-2.83-.16-.56-.41-1.41-.5-1.96-.1-.55.02-1.11-.14-1.73-.01-.05-.28-.41-.31-.42-.04-.03-.25-.02-.32-.01-.04,0-.04.08-.06.09-.06.03-.14.03-.19.08-.14.12-.09.98-.2,1.29-.18.52-.25.87-.38,1.4-.52,2.17-1.45,2.97-2.65,4.72-.22.32-.39.63-.31,1.02,0,0,0,0,0,0,.36.11.8-.12,1.1-.31.86-.54,1.39-1.28,1.95-2.05.05-.06-.02-.15.15-.11v.82s-.08.08-.09.14c-.43,1.6-1.24,3.68-2.84,4.61-.43.25-1.19.32-.7.94.42.53,1.53-.05,1.95-.37.24-.19.69-.59.89-.82.18-.21.32-.53.55-.7-.06.5-.31,1.04-.54,1.5-.52,1.03-1.33,2.14-2.14,3-.49.52-1.09.98-1.57,1.49-.17.18-.43.42-.34.65.18.49.64.4,1.06.23,1.22-.47,2.45-1.89,3.21-2.86.12-.15.22-.31.32-.47.12-.01.05.12.04.18-.35,2.41-1.6,4.39-4.04,5.49-.21.09-1,.33-1.09.47-.19.28.36.83.68.84.09,0,.43-.05.53-.07,1.39-.29,2.89-1.47,3.77-2.47.1-.11.13-.35.34-.33-.01.33.01.66,0,.99-.04,1.25.03,2.17.23,3.39.05.31.04.62.15.93.07.2.23.4.29.6.15.1.37-.21.41-.32.23-.52.35-1.8.39-2.4.06-.9-.08-1.83.03-2.73.08-.1.09-.03.15.04.48.57.83,1.23,1.57,1.61.91.46,1.65-.12.75-.8-1.5-1.12-2.05-2.09-2.39-3.84-.01-.06-.23-.5-.02-.49.04,0,.38.45.46.54.65.65,1.31.88,2.25.98.05,0,.56.04.57.09.01.13-.06-1.41-.06-1.41,0,.06-.46.04-.52.04Z"/><polygon class="cls-1" points="87.29 0 87.29 0 87.29 0 87.29 0"/><path class="cls-1" d="M85.07,30.74c-.57-.49-1.41-.61-2.52-.34-.11.02-.21.04-.3.05-.33.06-.61.11-.83.1-.31-.02-.47-.18-.54-.3-.3-.5.09-1.43.55-2.43.08-.17.15-.32.19-.43,2.14-4.48,3.43-9.95,4.05-17.23.01-.38.05-.86.09-1.41.18-2.46.45-6.19-.79-7.5l-.34.17.33-.18c-.45-.4-1.16-.28-2.14.38-.31.21-.62.44-.93.66-.65.47-1.32.96-2.09,1.4-2.45,1.45-5.23,2.66-8.03,3.49-7.36,2.24-15.42,1.67-23.95,1.07-4.77-.34-9.67-.68-14.5-.5-1.05.04-2.1.1-3.15.2-11.22,1.03-20.36,6.97-24.45,15.89-1.93,4.06-3.2,9.1-3.89,15.41-.11,1.06-.28,2.7-.35,4.15.07.29.44.25.48.02.02-.1.04-.19.05-.29,0,0,0,0,0,0,.16-.84.28-1.72.37-2.33.14-.92.23-1.45.27-1.59C6.07,19.84,15.31,10.52,31.75,9.88c6.64-.32,13.23-.01,19.6.28,1.23.06,2.46.11,3.68.17,4.76.25,8.94.13,12.68-.37l.07-.03-.04.02c5.22-.7,9.6-2.14,13.52-4.4.95-.52,1.64-.63,2.12-.34.57.34.82,1.19.79,2.75-.04,1.66-.2,3.55-.5,5.95-.5,4.11-1.68,9.98-4.41,14.61l-.07.14c-.4.79-.95,1.88-.92,2.69.01.59.33.95.94,1.08.53.17,1.29,0,2.02-.15,1.01-.21,2.05-.44,2.68.1.42.36.59,1,.52,1.96-.08,1.25-1.12,3.23-2.29,5.01-.32.49.38,1.01.75.55,0,0,.02-.02.02-.03,1.68-2.17,2.75-4.43,2.94-6.19.07-.63.12-2.17-.79-2.96Z"/><polygon class="cls-1" points="64 32.28 64 32.28 64 32.28 64 32.28"/><path class="cls-1" d="M66.99,30.15l-1.34-1.83-.02.03-.6-.87-1.01-1.39-5.95-8.23c-.38-.14-.77-.13-1.18-.12-.18,0-.38,0-.56,0l-.44.06c-.56-.02-1.12,0-1.66.03-.49.02-1,.04-1.5.03-.05.03-.05.29-.05.41,0,.14,0,.26-.02.35-.05.18-.22.47-.44.5-.07.01-.2,0-.31-.18-.11-.18-.1-.44-.09-.7,0-.23.02-.46-.06-.61v-1.51c-.04-.06-.08-.12-.12-.18-.11-.17-.22-.34-.38-.36h-3.92c-.12.03-.31.26-.32.35-.05.26-.03.62,0,.96.02.29.04.58.01.84-.01.14-.06.31-.18.34h-.02s-2.21,0-2.21,0c-1.12.1-2.27.12-3.37.14-.46,0-.92.02-1.37.03-.04,0-.09.01-.13.03-.06.01-.11.03-.17.03h-2.34c-1.39.13-2.83.14-4.22.15-1.01,0-2.04.01-3.05.07-.26.01-.85.08-1.03.15-.07.03-.12.09-.18.15l-.04.04c-.48.54-1.02,1.36-1.5,2.08-.13.2-.26.4-.38.57-.64.95-1.27,1.93-1.87,2.88-.96,1.5-1.95,3.06-3.03,4.53-.09.12-.17.25-.26.38-.18.27-.37.56-.59.78l-.67.85c-.05.08-.16.2-.27.31-.09.09-.23.23-.24.28-.02.14.55.8.78.87.15.04.69.11.89.13.13,0,.15-.01.19-.07.02-.03.06-.07.11-.11.01.66.19,1.5.21,2.08l.07,1.88c.13,1.98.02,4.11-.06,6.08,0,.15-.03.85.06.91.08.05,15.02,2.16,15.49,2.1.43-.06.46-.82-1.55-1.03l-4.28-.62s0,0,0,0c-.06-.33,0-.86.02-1.19.09-1.19-.07-2.48,0-3.69,0,0,0,0,0,0,.59.16,1.2.35,1.82.39.22.02,1.27.04,1.27-.25,0-.3-.67-.18-.9-.2-.37-.03-.73-.13-1.1-.12l-1.08-.22s0,0,0,0c-.07-.06.05-1.45,0-1.71-.02-.09-.1-.14-.12-.23-.04-.23.06-.39-.11-.63-.16-.23-.66-.25-.73-.02-.04.42-.06.85-.09,1.27-.12,1.82-.09,3.69,0,5.52.01.24.21.71.16.97,0,0,0,0,0,0l-8.04-.96s0,0,0,0v-5.66s-.01,0-.01,0c.6.15,1.2.29,1.82.4.28.01.67-.14.36-.39-.4-.32-1.54-.37-2.08-.46l-.07-.05-.03-1.72h0c-.04-.28-.11-.62-.13-.9-.02-.36.12-1.57-.25-1.75-.05-.02-.19-.19-.31-.32l7.44-10.27h.05s0,0,0,0c.1,0,.25.28.33.45l.03.07c.22.47.46.95.75,1.4l3.08,4.28.03.05.08.11-2.83.05c-.16-.02-.22-.1-.42-.12-.43-.03-1.05-.02-1.48,0-.1,0-.17.05-.09.11.47.09.94.23,1.4.32.86.17,1.89.3,2.76.35.18.01.75-.02,1.21-.04.31.47.65.93.99,1.38.3.41.61.83.9,1.25.16.23.31.5.48.79.25.42.5.86.76,1.17.12.14.33.3.47.34.42.1,1.01.03,1.52-.03.21-.02.4-.05.58-.06,1.16-.08,2.35-.12,3.49-.16.94-.03,1.9-.07,2.86-.12,2.63-.15,5.3-.33,7.89-.51,2.74-.19,5.57-.38,8.36-.53l1.13-.14c.02.12.04.28.04.31v1.07c-.74-.06-1.51-.09-2.25-.06-1.62.06-3.29.2-4.87.45-.53.08-1.14.12-1.66.29-.06.02-.12.03-.16.08-.06.07-.14.25.03.26.19,0,.43.02.62,0,.55-.05,1.18-.18,1.73-.23,1.75-.15,3.55-.08,5.3-.22.38-.03.81-.16,1.2-.17,0,0,0,0,0,0l-.12,8.75c-1.08.12-2.16.16-3.24.25-6.7.53-13.54.89-20.22,1.64-.31.04-1.61.18-1.79.28-.17.1-.35.57-.12.66.29,0,17.68-1.31,24.22-1.96.5-.05,1.05-.06,1.54-.11.32-.03.63-.12.96-.11v-4.96s0-.03,0-.04l-.04-3.29c-.03-.11-.05-.21-.02-.34,0,0,0-.02.01-.03l-.03-2.67h.07s0,0,0,0l1.1-.11c.18-.02.34-.12.43-.27l.34-.57s.02-.04.03-.06c.08-.23.05-.47-.09-.66ZM57.93,27.94c.02-.09.11-.18.18-.21.43-.2,2.12-.31,2.6-.26.13.01.26.05.39.09.1.03.19.06.27.07h.03s.02.03.02.03c.07.07.06.14.04.17-.03.06-.09.1-.2.1-.21,0-.4.03-.6.06-.12.02-.25.04-.38.05-.1,0-.2,0-.3,0-.09,0-.18,0-.26,0-.14.01-.29.03-.43.06-.22.03-.44.07-.66.07s-.44-.03-.65-.13l-.07-.03v-.07ZM49.22,20.96c2.19-.18,4.67-.39,6.81-.25h0s.64.07.71.15c.06.07.06.13.04.17-.04.1-.18.1-.3.11-.02,0-.04,0-.06,0-.45.12-.84.15-1.25.18-.12,0-.25.02-.38.03-3.48.32-7.34.52-12.15.62h-.21c-.25.01-.52.02-.78.02-.22,0-.43,0-.63-.02-.02,0-.04,0-.05,0-.09,0-.2,0-.29-.12l-.02-.04c-.02-.11,0-.21.05-.28.04-.05.1-.08.16-.09,2.82-.1,5.19-.23,7.24-.39.36-.03.72-.06,1.1-.09ZM55.61,28.14l-.09.02c-.11.02-.23.07-.35.1-.12.04-.25.08-.37.11-.84.18-1.74.2-2.62.21-.36,0-.73.01-1.08.03-1.07.05-2.16.15-3.22.24-.9.08-1.84.16-2.76.22-.14,0-.27.01-.4.01-.35,0-.63-.04-.71-.21-.04-.07-.02-.12,0-.14.04-.06.1-.06.15-.06,0,0,0-.02.01-.02.17-.27,1.66-.37,4.78-.52.93-.05,1.81-.09,2.51-.14l.23-.02c1.05-.08,2.65-.2,3.6-.11.11,0,.26.02.3.19l.02.09ZM39.46,31.68s-.05.03-.08.03c-.12,0-.3-.13-.55-.4-.5-.53-.9-1.2-1.3-1.85-.19-.32-.38-.62-.57-.91-.09-.13-.17-.25-.26-.38h0c-1.4-2.06-2.81-4-4.3-6.05-.34-.47-.68-.94-1.03-1.42-.01-.02-.03-.03-.04-.05-.05-.06-.13-.14-.11-.26v-.04s.03-.02.03-.02c.12-.1.43,0,1.07.24.08.03.14.06.19.07.04.01.07.04.1.08.84,1.24,1.72,2.48,2.57,3.69.87,1.23,1.75,2.48,2.61,3.75.47.7,1.11,1.65,1.54,2.3.14.21.13.44.13.67,0,.15,0,.3.03.44l.02.06-.04.04ZM35.75,22.32l.07-.08c.1-.12.2-.17.34-.21.45-.15,1.86-.29,2.36-.24.09,0,.17.03.25.06.08.02.16.05.24.05h.03s.02.02.02.02c.08.07.08.16.07.2-.04.16-.29.25-.38.28-.04,0-.68.14-.73.14h-2s-.08-.05-.12-.1c-.02-.02-.04-.05-.06-.06l-.09-.06ZM35.62,21.35c-.06,0-.51.03-.71.03-.04,0-.08,0-.09,0-.14-.03-.21-.13-.26-.21-.01-.02-.02-.04-.04-.05l-.02-.03v-.03s0-.17.55-.23c.88-.09,1.75-.18,2.63-.28,1.92-.21,3.91-.42,5.88-.57.22-.02.44-.04.67-.05,1.02-.09,2.08-.17,3.11-.12.08,0,.15.02.22.03.1.02.19.04.28.03h.13s-.03.11-.03.11c-.03.15-.16.17-.23.18-.02,0-.03,0-.05,0-.82.2-1.78.26-2.72.31-.39.02-.77.05-1.12.08-1.18.11-2.37.23-3.52.34-1.53.15-3.12.31-4.68.45ZM63.61,30.35c-.11,0-.21,0-.31,0-1.71.16-3.45.26-5.14.37-.48.03-2.7.17-3.19.2-.22.02-.45.03-.67.05l-1.26.1c-3.39.27-6.89.55-10.28.69-.41.02-.78.03-1.09.03s-.57,0-.77-.03c-.12,0-.27-.03-.34-.12l-.02-.02v-.03c-.02-.09,0-.18.06-.25.14-.18.51-.29,1.1-.33.92-.07,1.85-.12,2.76-.17.88-.05,1.78-.1,2.67-.17,1.38-.1,4.38-.3,5.83-.4,2.35-.16,4.7-.31,7-.46,1.57-.1,3.13-.21,4.7-.31h.03s.33.24.33.24l-.2.05c-.1.02-.18.12-.26.21-.07.08-.14.17-.24.23-.23.14-.48.13-.72.12Z"/><path class="cls-1" d="M38.35,37.41s0,0,0,0c.26.05.47-.09.71-.11,1.6-.16,2.8.19,4.32.34,1.55.16,2.92-.1,4.42-.35,1.5-.25,2.88-.22,4.39-.32.22-.02.46-.09.68-.11.28-.03,1.31.05,1.27-.36-.01-.13-.1-.14-.22-.14-1.39-.1-3.11.03-4.5.12-1.89.12-3.94.62-5.8.51-1.45-.09-2.94-.59-4.39-.13-.31.1-.59.26-.88.41-.01-.95.07-1.9-.13-2.83-.09-.17-.4-.3-.55-.13-.04.05-.17.83-.18.96-.19,2.46.14,5.12,0,7.6.12.27.07.64.14.89.02.06.12.25.17.35.02.06.11.04.16.03.03,0,.25-.5.26-.55.05-.23.02-.48.14-.72v-5.43Z"/><path class="cls-1" d="M31.37,35.31s0,0,0,0c.36-.76-.74-1.62-1.45-1.82-.42-.12-1.15-.07-1.57.06-.64.19-1.17.89-1.28,1.48-.05.29.04.68,0,.98-.43.04-1.38-.58-1.73-.42-.09.04-.14.14-.13.22.02.2.71.46.91.52.33.11.58.16.94.13,0,0,0,0,0,0-.04.21-.11.43-.13.64-.11,1.5.09,3.11,0,4.62.05.16.31.91.52.87.07-.01.19-.17.24-.24.29-.44.1-.89.24-1.36-.05-1.54-.01-3.09-.18-4.62-.04-.4.21-1.17.4-1.54.45-.87,1.63-.74,2.28-.12.28.27.46.88.94.61Z"/><path class="cls-1" d="M55.41,41.13c-.35.04-.77.2-1.13.26-.77.14-1.66.18-2.45.13-1.15-.08-2.34-.54-3.48-.14.17.17.43.11.63.15,1.43.29,2.67.77,4.21.72.84-.03,1.5-.23,2.28-.39,2.16-.45,4.41-.39,6.62-.57l.06-.02h0c.1-.04.08-.19-.03-.21l-.86-.12h0c-1.64-.1-3.25.16-4.87.23-.34.01-.62-.09-.98-.05Z"/><path class="cls-1" d="M59.09,37.4c-1.6.13-3.2.34-4.8.46-1.35.1-2.72.08-4.05.24-.29.03-.87.15-1.03.38.21,0,.43,0,.65,0,2.51.1,5.08-.12,7.58-.34.18-.02.37-.09.56-.11.45-.04.95-.03,1.41-.07.26-.08.47-.33.26-.55-.18-.19-.34-.02-.56,0Z"/><path class="cls-1" d="M31.82,29.7c.14-.18-.67-.27-.77-.28-.46-.03-.96.02-1.42,0-1.14-.05-2.31-.14-3.45-.17-.25,0-.56-.02-.81,0-.11,0-.2,0-.27.09.13.05.28.09.42.13,1.42.34,4.7.7,6.07.34.08-.02.14-.1.23-.1Z"/><path class="cls-1" d="M28.47,38.6c-.39.11-.28,1.28.35,1.16.81-.16.52-1.39-.35-1.16Z"/></g></svg>